<?xml version="1.0" standalone="no"?>
<!DOCTYPE svg PUBLIC "-//W3C//DTD SVG 20010904//EN"
 "http://www.w3.org/TR/2001/REC-SVG-20010904/DTD/svg10.dtd">
<svg version="1.0" xmlns="http://www.w3.org/2000/svg"
 width="668.000000pt" height="668.000000pt" viewBox="0 0 668.000000 668.000000"
 preserveAspectRatio="xMidYMid meet">
<metadata>
Created by potrace 1.14, written by Peter Selinger 2001-2017
</metadata>
<g transform="translate(0.000000,668.000000) scale(0.100000,-0.100000)"
fill="#000000" stroke="none">
<path d="M3177 5904 c-1 -1 -56 -5 -122 -8 -116 -6 -232 -14 -305 -21 -19 -2
-49 -4 -66 -4 -46 -1 -545 -320 -718 -458 -137 -109 -141 -113 -257 -279 -108
-153 -166 -256 -250 -441 -15 -35 -26 -63 -22 -63 3 0 0 -7 -7 -15 -7 -8 -9
-15 -5 -15 4 0 2 -7 -5 -15 -7 -8 -10 -15 -6 -15 3 0 1 -12 -5 -27 -6 -16 -12
-35 -14 -43 -20 -79 -87 -326 -91 -332 -3 -5 -9 -6 -13 -3 -10 5 -35 -22 -44
-47 -3 -10 3 -26 17 -40 17 -18 26 -47 39 -128 9 -58 19 -116 22 -130 2 -13 7
-42 11 -65 17 -110 23 -148 39 -249 16 -96 16 -112 3 -135 -19 -34 -12 -68 15
-78 12 -4 25 -6 29 -5 3 1 34 -45 69 -101 89 -146 186 -305 262 -429 55 -90
63 -109 51 -119 -40 -33 8 -99 59 -80 20 8 33 5 69 -18 24 -15 48 -30 53 -32
49 -20 254 -152 249 -160 -3 -5 2 -21 10 -34 33 -50 102 -18 90 42 -5 26 23
78 216 399 122 203 226 373 231 378 6 6 13 6 20 -1 6 -6 51 -113 100 -239 88
-224 89 -230 73 -257 -8 -15 -13 -35 -10 -43 4 -10 -38 -50 -131 -127 -112
-92 -142 -112 -165 -109 -42 3 -68 -14 -68 -46 0 -16 5 -33 12 -40 19 -19 65
-14 81 9 11 15 29 22 69 25 72 5 260 13 331 14 31 0 57 4 57 9 0 5 -17 8 -37
6 -21 -1 -114 -6 -208 -9 -93 -4 -178 -9 -187 -12 -12 -4 -18 0 -18 10 0 22
272 246 286 235 6 -5 24 -7 40 -4 26 5 39 -4 127 -89 55 -53 93 -97 87 -101
-6 -3 -8 -11 -5 -16 4 -5 -12 -9 -34 -9 -23 0 -41 -4 -41 -8 0 -4 16 -7 37 -7
24 1 43 -5 55 -17 19 -19 19 -40 16 -628 l-3 -609 -22 -21 c-28 -25 -29 -51
-5 -73 26 -24 59 -21 77 7 12 18 14 30 6 44 -11 21 -24 1 221 373 125 190 153
227 163 218 2 -2 6 -103 10 -224 3 -121 8 -267 10 -325 3 -58 4 -147 5 -197 0
-51 3 -93 8 -93 4 0 6 28 5 62 -2 104 -15 535 -18 655 -4 109 -3 112 21 127
14 10 24 26 24 39 0 19 33 46 173 140 127 85 179 115 194 111 23 -6 63 26 63
50 0 8 33 31 73 51 39 21 95 50 122 65 160 87 327 171 331 167 2 -2 -12 -17
-33 -32 -21 -15 -67 -58 -103 -96 -36 -37 -109 -113 -163 -168 -93 -94 -100
-99 -132 -94 -28 4 -36 1 -50 -20 -17 -26 -13 -67 6 -67 15 0 10 -27 -15 -82
-14 -29 -124 -278 -246 -553 -121 -275 -225 -504 -230 -509 -9 -9 -13 36 -13
127 0 9 -3 17 -8 17 -4 0 -6 -33 -4 -74 3 -67 1 -77 -20 -96 -20 -19 -22 -26
-13 -51 12 -36 42 -46 73 -25 28 18 32 42 12 71 -12 18 3 57 136 355 82 184
195 441 252 570 57 129 107 235 112 235 23 1 43 24 45 52 3 25 35 64 173 205
197 201 228 228 267 228 23 0 32 7 43 33 8 20 44 58 87 93 40 32 75 61 78 64
3 3 30 25 60 50 30 25 57 47 60 50 3 3 33 29 68 57 55 46 66 51 88 43 19 -8
28 -6 43 9 20 20 18 59 -3 73 -6 4 1 34 22 85 29 71 32 87 32 184 l0 105 -61
150 c-66 163 -67 173 -29 280 l19 54 -60 40 c-32 23 -59 42 -59 43 0 2 13 41
30 87 16 47 30 92 30 100 0 9 -15 45 -34 80 -61 115 -117 268 -111 303 3 18
16 95 29 172 14 77 27 156 30 176 l5 35 -137 66 c-75 35 -172 80 -214 99 l-78
34 0 69 c0 63 -4 76 -53 170 -92 175 -123 216 -265 354 l-137 133 -282 140
c-245 121 -304 146 -440 186 -136 39 -172 46 -256 48 -53 1 -98 0 -100 -1z
m-1772 -1836 c6 -1 10 -12 10 -25 0 -14 -5 -21 -12 -19 -7 3 -15 1 -17 -3 -3
-5 5 -7 17 -6 12 1 22 3 22 4 0 2 11 4 24 7 20 4 22 2 11 -11 -7 -8 -15 -13
-19 -11 -4 3 -13 0 -21 -6 -12 -8 -12 -9 2 -4 13 4 22 -3 33 -25 9 -16 20 -27
24 -24 10 5 25 -25 16 -33 -3 -3 -5 0 -5 6 0 15 -26 16 -35 2 -11 -17 5 -32
20 -20 11 9 14 7 12 -9 -1 -12 -5 -21 -9 -21 -4 0 -8 -5 -8 -11 0 -8 6 -7 16
2 15 12 16 11 10 -9 -5 -13 -3 -22 3 -23 26 -3 30 -4 34 -9 2 -3 -5 -14 -16
-25 -20 -20 -20 -20 -13 0 4 11 4 16 0 12 -4 -4 -12 0 -18 8 -8 11 -15 12 -26
4 -13 -9 -13 -10 1 -6 11 4 20 -3 27 -19 11 -23 42 -25 42 -1 0 6 3 7 8 3 4
-4 7 -13 7 -18 0 -6 6 -12 13 -14 7 -1 8 0 2 3 -7 3 -7 10 2 21 11 13 11 14
-1 7 -10 -6 -12 -4 -6 5 5 8 4 11 -2 7 -5 -3 -10 0 -10 8 0 8 5 11 10 8 6 -3
7 -1 3 5 -3 6 -15 9 -26 7 -11 -2 -22 0 -25 6 -6 9 8 13 34 9 8 -1 22 -11 32
-23 10 -12 18 -16 19 -9 0 21 -38 51 -60 47 -11 -2 -18 0 -15 6 4 5 11 7 16 4
5 -4 9 -1 9 5 0 6 -7 10 -16 8 -10 -2 -19 3 -22 11 -2 8 0 11 5 8 5 -3 9 3 9
13 0 10 -5 16 -10 13 -5 -3 -6 -1 -2 5 4 7 2 12 -4 12 -6 0 -8 5 -4 11 4 8 9
7 16 -2 8 -11 9 -11 5 1 -2 8 -9 14 -15 13 -5 -1 -13 4 -16 13 -4 10 -1 13 7
9 6 -4 5 -1 -3 7 -8 7 -16 22 -17 33 -1 11 0 14 3 7 3 -6 10 -10 15 -7 5 4 6
-2 2 -12 -6 -16 -5 -17 12 -3 11 9 16 10 11 3 -9 -16 6 -17 22 -1 7 7 12 9 12
4 0 -13 -27 -35 -35 -28 -4 4 -6 0 -3 -8 3 -8 12 -14 21 -12 17 3 51 -50 40
-62 -4 -3 -1 -6 7 -6 10 0 10 -4 -1 -17 -12 -15 -12 -16 6 -10 18 7 19 6 3 -6
-20 -15 -14 -29 8 -20 8 3 14 0 14 -7 0 -6 -5 -8 -11 -4 -7 4 -10 1 -7 -7 3
-8 10 -15 16 -15 22 -3 23 -4 11 -25 -9 -18 -7 -25 9 -42 l20 -20 -21 -43
c-11 -24 -25 -44 -29 -44 -4 0 -8 -7 -8 -15 0 -8 -6 -15 -12 -15 -8 -1 -6 -6
5 -14 12 -9 14 -16 8 -21 -6 -3 -11 -2 -11 3 0 6 -6 12 -14 15 -8 3 -13 -1
-13 -11 0 -35 -3 -43 -13 -37 -6 4 -10 3 -9 -2 1 -4 -1 -16 -6 -26 -6 -15 -10
-15 -24 -5 -14 11 -14 11 -3 -3 18 -24 -43 -129 -75 -129 -14 0 -22 6 -21 18
0 9 -2 33 -5 52 -5 31 -51 312 -62 380 -2 14 -7 42 -10 64 -4 21 -8 48 -11 59
-16 83 -15 94 8 105 13 6 34 9 48 6 14 -3 30 -5 35 -6z m50 -26 c-9 -9 -35
-11 -35 -3 0 14 12 20 26 14 8 -3 12 -8 9 -11z m19 -64 c-3 -4 0 -8 6 -8 6 0
8 -5 4 -11 -4 -8 -11 -3 -20 12 -13 25 -7 51 7 28 4 -7 5 -17 3 -21z m93 16
c-3 -3 -12 -4 -19 -1 -8 3 -5 6 6 6 11 1 17 -2 13 -5z m27 -12 c3 -5 -1 -9 -9
-9 -8 0 -12 4 -9 9 3 4 7 8 9 8 2 0 6 -4 9 -8z m-114 -66 c0 -3 -4 -8 -10 -11
-5 -3 -10 -1 -10 4 0 6 5 11 10 11 6 0 10 -2 10 -4z m150 -36 c0 -5 -4 -10
-10 -10 -5 0 -10 5 -10 10 0 6 5 10 10 10 6 0 10 -4 10 -10z m31 -53 c-10 -9
-11 -8 -5 6 3 10 9 15 12 12 3 -3 0 -11 -7 -18z m113 -25 c2 -4 -4 -8 -14 -8
-10 0 -16 4 -14 8 3 4 9 8 14 8 5 0 11 -4 14 -8z m70 0 c3 -5 -1 -9 -9 -9 -8
0 -12 4 -9 9 3 4 7 8 9 8 2 0 6 -4 9 -8z m-183 -37 c5 4 9 1 9 -4 0 -6 -4 -11
-8 -11 -12 0 -32 22 -32 35 0 5 5 2 11 -8 6 -9 14 -15 20 -12z m119 0 c12 2
20 1 16 -2 -14 -14 -45 -12 -57 5 -12 15 -12 16 2 5 8 -7 26 -11 39 -8z m69 2
c8 -10 7 -14 -2 -14 -8 0 -14 6 -14 14 0 7 1 13 2 13 2 0 8 -6 14 -13z m-94
-35 c-3 -3 -11 0 -18 7 -9 10 -8 11 6 5 10 -3 15 -9 12 -12z m-25 -11 c0 -6
-10 -17 -22 -25 -23 -16 -35 -50 -15 -43 7 3 11 11 9 18 -2 8 -1 11 3 8 3 -4
17 4 30 17 13 13 30 24 37 23 10 0 10 -2 0 -6 -6 -2 -10 -9 -7 -14 4 -5 -2 -6
-12 -2 -13 4 -10 -2 10 -22 15 -15 27 -32 27 -36 0 -13 22 -10 42 4 15 12 15
14 -4 26 -18 11 -20 11 -15 -3 3 -8 1 -18 -5 -22 -6 -4 -8 -3 -5 3 4 6 0 13
-8 17 -17 6 -19 15 -6 35 8 12 13 11 30 -10 11 -13 20 -20 21 -14 0 5 7 -1 16
-13 8 -12 18 -20 22 -18 4 2 16 -2 27 -10 10 -8 15 -14 9 -14 -5 0 -2 -5 6
-10 11 -7 6 -8 -17 -5 -18 2 -33 -1 -33 -6 0 -5 -5 -9 -11 -9 -5 0 -8 4 -4 9
11 19 -18 23 -33 5 -13 -17 -14 -17 -8 -1 3 10 2 15 -3 12 -5 -3 -12 -1 -16 5
-4 6 -11 8 -16 5 -5 -3 -6 2 -3 12 5 14 4 15 -4 4 -6 -8 -15 -10 -22 -6 -8 5
-11 4 -7 -2 8 -13 -24 -13 -40 0 -7 5 -13 6 -13 1 0 -4 -6 1 -14 11 -8 11 -12
24 -8 29 3 5 -3 6 -14 2 -14 -5 -16 -4 -8 4 6 6 18 13 25 14 29 6 49 18 43 27
-3 5 0 9 5 9 6 0 11 -4 11 -9z m100 -1 c8 -5 11 -10 5 -10 -5 0 -17 5 -25 10
-8 5 -10 10 -5 10 6 0 17 -5 25 -10z m55 0 c3 -5 1 -10 -4 -10 -6 0 -11 5 -11
10 0 6 2 10 4 10 3 0 8 -4 11 -10z m-15 -36 c0 -8 5 -14 11 -14 6 0 8 8 5 18
-5 14 -4 14 9 -2 8 -11 15 -25 14 -30 0 -6 -3 -6 -5 1 -3 7 -12 9 -20 6 -10
-4 -17 2 -21 15 -3 14 -11 19 -21 15 -14 -4 -15 -3 -2 5 17 13 30 6 30 -14z
m117 19 c-4 -3 -1 -13 6 -22 11 -14 10 -14 -5 -2 -16 12 -16 31 -1 31 4 0 3
-3 0 -7z m688 -23 c16 -17 16 -20 3 -15 -9 4 -19 13 -22 21 -7 19 -2 18 19 -6z
m-628 -14 c0 -15 -21 -16 -34 -1 -4 4 -3 5 4 1 6 -3 14 -2 18 4 8 14 12 13 12
-4z m-41 -23 c-3 -3 6 -15 20 -25 20 -16 22 -23 13 -34 -10 -12 -7 -14 12 -10
13 3 26 5 29 5 3 1 1 5 -5 9 -15 11 -49 52 -43 52 6 0 48 -39 66 -62 10 -13
11 -22 2 -38 -6 -11 -16 -18 -21 -14 -6 3 -3 11 8 19 10 7 15 17 10 21 -4 4
-7 2 -7 -4 0 -7 -5 -12 -11 -12 -5 0 -8 4 -5 8 3 5 -1 9 -9 9 -8 0 -15 -5 -15
-10 0 -5 -7 -4 -15 3 -12 10 -15 10 -15 -1 0 -11 -2 -11 -9 1 -6 8 -8 17 -5
21 2 4 -3 12 -11 19 -18 15 -19 7 -5 -21 8 -15 8 -19 -2 -17 -7 2 -12 -4 -10
-12 3 -12 1 -12 -9 -3 -9 9 -9 16 -1 25 8 10 8 18 0 28 -8 12 -9 12 -4 -2 3
-10 1 -18 -4 -18 -6 0 -10 9 -10 21 0 12 5 19 13 16 6 -2 17 3 23 12 9 12 8
18 -5 29 -14 11 -13 12 7 2 13 -7 21 -14 18 -17z m149 17 c-3 -5 -12 -10 -18
-10 -7 0 -6 4 3 10 19 12 23 12 15 0z m485 -15 c-8 -9 -8 -15 -2 -15 6 0 14 5
17 10 3 6 11 10 16 10 6 0 7 -4 4 -10 -3 -5 -2 -10 4 -10 5 0 11 3 14 8 2 4 3
2 1 -5 -1 -6 0 -14 4 -17 10 -10 11 -37 1 -30 -15 9 -10 -13 6 -30 15 -15 29
-74 30 -128 0 -14 2 -24 5 -22 6 6 38 -158 33 -168 -8 -16 -39 -7 -68 20 -16
15 -74 63 -129 107 -54 43 -93 81 -87 83 6 2 11 10 11 18 0 8 4 14 8 14 5 0
16 16 25 35 9 19 22 35 27 35 6 0 8 5 5 10 -3 6 1 13 9 16 9 3 14 9 12 13 -2
3 2 15 10 26 8 10 14 13 14 6 0 -7 4 -10 9 -6 6 3 8 14 6 25 -2 12 0 18 6 15
5 -4 9 -1 9 6 0 7 3 9 6 6 4 -4 1 -13 -6 -22z m-966 -11 c3 -9 10 -13 15 -9 5
3 12 1 15 -4 4 -5 24 -8 46 -6 30 2 43 -1 50 -14 8 -16 5 -18 -21 -17 -16 1
-34 8 -39 16 -8 12 -10 12 -10 1 0 -11 -3 -11 -15 -1 -13 11 -14 10 -9 -4 4
-10 13 -15 20 -12 16 6 18 -3 4 -24 -8 -12 -10 -12 -10 -1 0 8 -3 12 -6 8 -10
-10 6 -26 21 -21 8 4 13 10 10 14 -13 21 25 15 44 -6 22 -25 41 -24 41 2 0 8
4 14 8 14 14 0 44 -37 35 -42 -4 -3 -2 -3 6 -1 7 2 19 -2 27 -8 9 -8 18 -7 31
1 17 11 17 11 -1 5 -13 -4 -32 5 -58 25 -38 31 -58 32 -58 3 0 -13 -3 -13 -15
-3 -16 13 -21 35 -6 25 5 -3 12 -1 16 4 3 6 18 10 33 10 15 1 38 1 51 1 13 1
28 -3 34 -9 12 -12 -1 -34 -15 -25 -6 4 -5 10 3 15 8 5 9 9 3 9 -6 0 -18 -8
-25 -17 -10 -11 -10 -14 -1 -9 7 4 12 2 12 -4 0 -7 8 -9 19 -5 22 7 39 -24 19
-37 -10 -6 -8 -8 5 -8 16 0 22 -15 19 -53 -1 -10 3 -15 8 -12 9 6 14 -10 13
-42 -1 -7 3 -11 7 -8 4 2 15 -21 25 -53 10 -31 20 -61 23 -66 3 -5 0 -6 -6 -2
-7 4 -12 2 -12 -3 0 -6 4 -11 9 -11 6 0 6 -11 1 -27 -11 -39 -105 -338 -143
-458 -17 -55 -30 -104 -29 -108 2 -6 -39 0 -44 7 0 0 -81 134 -179 296 -98
162 -184 302 -191 310 -10 12 -10 19 -1 30 12 16 31 17 122 6 122 -14 191 -22
270 -31 33 -4 86 -10 118 -14 31 -4 57 -4 57 1 0 4 -10 8 -22 9 -13 0 -32 2
-43 3 -36 5 -139 17 -185 22 -25 3 -55 7 -68 9 -13 2 -53 7 -90 11 -37 3 -74
8 -82 9 -8 2 -24 4 -35 4 -11 1 -25 12 -31 26 -10 21 -7 32 24 82 20 32 40 60
44 61 4 2 8 10 8 18 0 8 7 14 16 14 10 0 14 6 11 15 -4 8 -2 17 3 20 6 4 10 0
10 -7 0 -7 7 0 15 16 8 15 13 31 10 36 -2 4 5 16 15 28 21 22 45 20 54 -4z
m296 6 c0 -5 -9 -8 -20 -7 -22 1 -27 13 -7 20 14 5 27 -1 27 -13z m137 0 c1
-11 -2 -22 -8 -25 -5 -4 -6 2 -2 12 6 16 5 17 -13 3 -19 -14 -19 -14 0 8 23
27 21 26 23 2z m33 -41 c11 -8 9 -9 -10 -4 -24 7 -24 6 -8 -11 14 -14 20 -15
33 -4 17 14 28 8 31 -15 1 -8 -2 -12 -8 -9 -6 4 -9 1 -6 -7 6 -17 26 -19 52
-6 20 10 40 -9 29 -26 -3 -5 0 -7 8 -5 8 3 13 12 11 19 -3 11 -1 11 9 2 9 -9
8 -15 -5 -28 -9 -9 -16 -14 -16 -10 0 3 -10 1 -21 -6 -17 -9 -20 -8 -14 2 6 8
4 10 -5 4 -9 -6 -11 -4 -5 5 6 9 4 11 -5 5 -8 -5 -18 -1 -27 10 -7 11 -13 13
-13 7 0 -7 -5 -12 -11 -12 -5 0 -8 4 -4 9 3 5 1 12 -5 16 -6 4 -7 11 -4 17 5
8 1 9 -10 5 -9 -4 -15 -3 -12 2 3 5 -1 14 -9 21 -26 22 -3 39 25 19z m70 5 c0
-8 -19 -13 -24 -6 -3 5 1 9 9 9 8 0 15 -2 15 -3z m37 -14 c-1 -11 -5 -20 -9
-20 -10 0 -10 4 -2 24 8 22 13 20 11 -4z m-27 -30 c0 -5 -4 -10 -10 -10 -5 0
-10 5 -10 10 0 6 5 10 10 10 6 0 10 -4 10 -10z m64 -2 c-3 -4 -9 -8 -15 -8 -5
0 -9 4 -9 8 0 5 7 9 15 9 8 0 12 -4 9 -9z m-242 -12 c15 2 27 0 27 -4 -3 -21
3 -32 17 -32 8 0 12 -5 9 -11 -4 -6 2 -5 14 3 12 7 21 17 21 22 0 4 -7 3 -15
-4 -9 -8 -15 -9 -15 -2 0 6 4 14 10 17 12 7 42 -8 41 -21 0 -5 5 -9 12 -9 20
-1 52 -23 44 -31 -4 -4 -14 1 -23 12 -14 18 -15 18 -4 -4 8 -16 17 -22 28 -17
9 4 22 7 27 8 6 1 13 7 17 12 5 6 8 5 8 -2 0 -16 -51 -42 -70 -35 -8 2 -12 2
-8 -2 11 -13 43 -14 51 -2 6 8 10 7 14 -1 2 -7 9 -13 15 -13 6 0 4 7 -3 17
-12 14 -12 16 1 11 8 -3 15 -14 14 -26 0 -12 3 -19 8 -16 4 3 8 13 8 22 1 15
2 15 11 -1 6 -9 14 -15 19 -12 4 3 10 -2 14 -10 3 -9 12 -12 21 -9 9 4 14 13
11 21 -4 9 -1 12 7 8 6 -4 3 1 -7 9 -13 10 -23 12 -31 6 -8 -6 -18 -5 -30 4
-12 9 -15 15 -7 20 7 4 12 2 12 -3 0 -6 5 -11 12 -11 9 0 9 3 0 12 -14 14 -45
20 -37 8 3 -5 0 -12 -6 -15 -7 -5 -10 -1 -7 9 1 10 7 16 11 14 16 -6 29 32 17
47 -8 9 -8 15 0 20 6 4 9 1 8 -7 -2 -7 2 -12 9 -11 6 2 11 -5 11 -15 -1 -25 5
-46 17 -54 13 -10 25 -10 24 0 -3 18 2 32 12 32 5 0 8 -4 4 -9 -7 -12 29 -33
40 -23 5 4 5 1 1 -5 -4 -7 -2 -13 3 -13 6 0 11 -5 11 -11 0 -5 -4 -8 -9 -4 -6
3 -14 -3 -20 -12 -5 -10 -13 -17 -18 -17 -4 1 -19 -2 -31 -7 -13 -5 -29 -6
-35 -2 -7 3 -8 2 -4 -3 10 -11 -91 -56 -107 -47 -6 3 -8 3 -4 -2 8 -9 -140
-80 -148 -72 -10 9 -62 167 -56 167 4 0 3 4 -3 8 -18 13 -35 75 -25 87 5 7 6
15 2 20 -4 4 2 3 13 -2 11 -5 32 -8 47 -7z m312 -42 c3 -8 2 -12 -4 -9 -6 3
-10 10 -10 16 0 14 7 11 14 -7z m-1 -87 c-3 -5 -9 -3 -14 4 -4 7 -5 17 -2 22
3 5 9 3 14 -4 4 -7 5 -17 2 -22z m197 -48 c41 -33 84 -68 95 -78 11 -9 37 -29
58 -45 20 -16 37 -35 37 -43 0 -10 -9 -13 -37 -9 -21 3 -67 8 -103 11 -36 3
-83 8 -105 11 -80 10 -111 13 -175 19 -101 9 -223 25 -227 29 -1 1 44 21 100
45 133 58 205 89 242 106 17 8 32 15 35 15 3 0 39 -27 80 -61z m794 -5 c3 -8
2 -13 -3 -10 -5 3 -11 -1 -15 -9 -6 -17 21 -35 44 -28 13 4 13 3 0 -6 -8 -5
-18 -8 -22 -5 -4 3 -22 -2 -39 -11 -20 -11 -28 -12 -24 -4 6 8 4 10 -5 4 -9
-6 -11 -4 -5 6 7 11 5 11 -10 -1 -10 -8 -16 -10 -12 -3 5 8 -1 11 -20 8 -16
-2 -22 -2 -15 1 6 3 10 10 6 15 -3 5 -14 -1 -24 -13 -13 -15 -19 -18 -20 -9 0
8 -3 12 -6 9 -8 -9 15 -50 25 -44 4 3 16 -1 26 -8 13 -9 15 -15 7 -20 -7 -4
-12 -2 -12 3 0 6 -10 11 -22 10 -23 0 -23 0 1 -10 23 -9 24 -10 5 -25 -18 -15
-18 -15 2 -5 11 5 26 17 34 25 7 9 17 16 23 16 6 0 1 -10 -11 -23 -32 -34 -22
-68 21 -73 41 -4 42 -5 22 -14 -11 -5 -14 -9 -7 -9 7 -1 10 -6 7 -11 -4 -6
-11 -8 -16 -5 -5 3 -6 -1 -3 -9 3 -9 1 -16 -5 -16 -6 0 -10 -3 -9 -7 5 -18
-14 -53 -25 -47 -7 4 -9 4 -5 0 5 -6 -47 -117 -68 -145 -2 -1 -42 29 -91 69
-48 39 -122 99 -164 132 -52 43 -75 67 -72 79 6 20 136 75 154 64 7 -5 10 -4
6 2 -10 16 23 25 39 12 12 -10 13 -9 8 5 -6 15 10 22 39 17 4 0 7 4 7 10 0 5
5 7 10 4 6 -3 10 -1 10 5 0 7 6 10 14 7 8 -3 16 -2 18 3 2 4 12 10 23 12 11 1
26 8 32 15 7 6 21 10 30 9 10 -2 21 1 24 6 4 6 14 6 28 -1 23 -13 28 -3 9 19
-7 8 -2 6 11 -5 22 -18 24 -18 18 -2 -4 11 -3 16 3 12 6 -3 10 -1 10 4 0 16 7
13 14 -5z m46 -9 c0 -8 -3 -16 -7 -18 -5 -3 -8 5 -8 18 0 13 3 21 8 18 4 -2 7
-10 7 -18z m20 -32 c0 -5 -5 -15 -10 -23 -7 -12 -9 -10 -7 8 1 19 17 33 17 15z
m75 -2 c3 -5 2 -12 -3 -15 -5 -3 -9 1 -9 9 0 17 3 19 12 6z m-237 -31 c1 -2 7
-4 12 -5 6 -1 11 -3 13 -5 8 -6 37 -7 37 0 0 4 10 6 23 6 12 -1 27 0 32 3 6 3
2 -2 -8 -11 -11 -10 -16 -18 -12 -18 4 0 1 -8 -6 -17 -12 -15 -12 -16 3 -10
15 5 16 3 6 -18 -6 -14 -16 -25 -21 -25 -5 0 -3 8 4 17 8 10 9 14 2 10 -8 -5
-11 -1 -8 13 2 11 0 20 -6 20 -5 0 -9 -4 -9 -10 0 -5 -5 -10 -11 -10 -8 0 -8
4 0 13 8 10 7 14 -3 14 -8 0 -13 -7 -11 -16 1 -9 -3 -19 -9 -23 -8 -5 -7 -8 2
-8 7 0 10 -5 7 -10 -5 -8 -12 -7 -22 2 -15 12 -15 11 -2 -9 7 -12 16 -19 19
-15 9 12 40 10 40 -2 0 -10 -40 -14 -71 -7 -12 2 -4 38 14 55 18 18 14 41 -7
33 -6 -3 -20 1 -30 9 -11 7 -23 11 -27 8 -10 -6 -12 9 -4 18 5 4 47 3 53 -2z
m197 -11 c-3 -4 2 -10 10 -13 8 -3 14 -11 13 -17 -2 -6 3 -14 11 -17 8 -3 11
0 7 7 -4 6 -2 11 4 11 7 0 10 -7 7 -15 -7 -18 9 -30 17 -13 3 7 3 3 0 -9 -3
-14 -1 -23 6 -23 6 0 9 -4 5 -9 -3 -5 -1 -12 3 -15 5 -3 8 -15 7 -28 -1 -13 2
-31 7 -41 6 -12 5 -23 -4 -35 -11 -13 -11 -14 1 -7 11 6 13 4 8 -8 -3 -10 -2
-17 2 -17 5 0 8 -11 6 -25 -1 -14 1 -25 5 -25 4 0 7 -6 7 -12 0 -7 4 -29 7
-48 4 -19 9 -46 11 -60 3 -14 9 -49 15 -79 5 -30 8 -56 6 -59 -4 -3 -413 145
-425 155 -10 8 69 147 94 165 5 4 6 8 2 8 -9 0 42 92 58 102 5 4 10 12 10 18
0 6 6 14 13 19 8 5 13 11 13 15 -3 21 0 30 7 21 9 -13 32 -17 32 -6 0 5 -6 12
-12 14 -10 4 -10 8 1 15 7 5 11 15 7 21 -5 7 -1 8 10 4 10 -4 15 -2 11 4 -3 5
0 10 8 10 8 0 12 -4 10 -8z m55 6 c0 -7 -30 -13 -34 -7 -3 4 4 9 15 9 10 1 19
0 19 -2z m15 -25 c3 -6 -1 -7 -9 -4 -18 7 -21 14 -7 14 6 0 13 -4 16 -10z
m-1310 -25 c17 -2 57 -7 90 -10 33 -3 96 -10 140 -15 44 -5 107 -11 140 -15
130 -12 160 -17 167 -28 4 -6 -74 -60 -195 -135 -111 -68 -218 -135 -237 -147
-139 -89 -363 -225 -369 -225 -5 0 -14 -7 -21 -15 -18 -21 -40 -19 -40 5 0 11
9 46 19 77 11 32 45 141 76 243 31 102 64 207 72 233 l16 49 56 -7 c31 -3 70
-8 86 -10z m1111 -22 c-2 -9 -8 -19 -15 -21 -14 -5 -11 20 4 30 14 10 14 10
11 -9z m-558 -82 c-1 -4 -102 -173 -223 -375 -198 -331 -222 -366 -245 -366
-14 0 -30 -4 -36 -10 -6 -6 -28 2 -64 24 -30 18 -110 66 -177 105 -68 40 -123
78 -123 85 0 16 13 25 315 211 248 152 418 258 494 307 45 28 65 35 59 19z
m233 -122 c87 -72 159 -133 159 -136 0 -2 -25 -53 -55 -113 -44 -85 -59 -107
-73 -103 -13 3 -44 72 -107 235 -50 127 -91 235 -93 240 -8 20 20 0 169 -123z
m197 -148 c9 -6 110 -45 225 -87 196 -73 207 -78 208 -103 0 -14 2 -33 4 -41
2 -8 6 -33 10 -55 3 -22 10 -65 15 -95 16 -93 19 -114 25 -152 5 -29 2 -41
-15 -58 l-20 -20 -103 29 c-56 16 -123 34 -149 41 -27 7 -48 18 -48 26 0 22
-30 44 -61 44 -41 0 -217 169 -218 209 0 14 -2 33 -3 41 -2 12 101 230 110
230 1 0 10 -4 20 -9z m937 -341 c3 -5 1 -10 -4 -10 -6 0 -11 5 -11 10 0 6 2
10 4 10 3 0 8 -4 11 -10z m4 -33 c-2 -1 -13 -9 -24 -17 -19 -14 -19 -14 -6 3
7 9 18 17 24 17 6 0 8 -1 6 -3z m-59 -48 c0 -5 -4 -9 -8 -9 -5 0 -9 7 -9 15 0
8 4 12 9 9 4 -3 8 -9 8 -15z m-37 4 c-7 -2 -13 -9 -13 -14 0 -6 4 -8 8 -5 4 2
14 0 22 -5 12 -7 10 -8 -7 -6 -12 2 -25 6 -29 9 -9 9 5 28 19 27 9 0 9 -2 0
-6z m81 -5 c-3 -4 -9 -8 -15 -8 -5 0 -9 4 -9 8 0 5 7 9 15 9 8 0 12 -4 9 -9z
m56 -24 c-6 -6 -8 -13 -5 -16 3 -2 -1 -5 -8 -5 -7 0 -13 8 -13 17 0 8 8 16 18
16 11 0 14 -4 8 -12z m-160 -16 c0 -5 -4 -6 -10 -3 -5 3 -10 2 -10 -4 0 -18
17 -21 30 -6 7 8 18 15 24 15 6 0 4 -5 -4 -10 -13 -9 -10 -15 17 -40 19 -17
39 -27 48 -24 8 3 12 11 9 16 -4 6 5 3 19 -7 24 -15 28 -45 6 -45 -5 0 -9 -4
-9 -9 0 -6 9 -9 20 -8 13 1 19 6 15 15 -3 7 0 10 6 7 6 -4 8 -13 5 -21 -3 -7
-1 -16 4 -19 10 -6 14 7 11 32 -1 6 3 14 8 18 13 7 9 -48 -4 -57 -5 -4 -14 -4
-20 0 -20 13 -42 11 -42 -4 0 -9 6 -13 14 -9 24 9 52 -13 48 -37 -3 -12 -8
-24 -13 -27 -4 -3 -8 -19 -7 -36 0 -32 -24 -43 -33 -15 -4 12 -3 13 10 3 12
-10 15 -10 15 2 0 8 -4 12 -9 9 -4 -3 -8 -1 -8 5 0 5 3 11 8 14 4 2 1 2 -5 1
-7 -2 -12 2 -10 9 1 7 -4 11 -11 9 -8 -1 -11 2 -6 9 5 8 3 9 -7 4 -12 -8 -12
-6 0 8 9 11 10 17 2 17 -6 0 -11 -6 -12 -12 0 -9 -2 -9 -6 1 -5 11 -7 11 -15
0 -7 -11 -8 -9 -6 6 2 12 -2 19 -10 17 -8 -1 -11 2 -6 9 5 8 3 9 -6 4 -9 -6
-11 -4 -5 6 7 11 5 11 -10 -1 -14 -11 -17 -11 -11 -2 7 12 4 12 -15 2 -23 -11
-23 -10 -5 4 11 9 14 16 7 16 -7 0 -10 4 -7 9 3 4 -4 17 -17 27 l-22 19 20
-25 20 -25 -20 15 c-18 14 -19 13 -7 -1 10 -13 10 -19 -2 -28 -11 -9 -13 -6
-11 19 2 20 -1 27 -9 23 -19 -12 -36 -12 -30 0 3 7 -2 3 -12 -8 -14 -17 -16
-18 -10 -2 4 13 2 16 -7 11 -6 -4 -9 -4 -5 1 10 10 -10 45 -25 45 -8 0 -8 -3
2 -9 8 -5 9 -11 3 -15 -6 -3 -12 -3 -15 1 -2 5 -3 3 -1 -3 1 -7 -5 -10 -17 -7
-10 3 -19 1 -19 -5 0 -19 16 -22 36 -7 27 20 36 18 22 -4 -7 -11 -15 -18 -19
-15 -4 2 -11 -1 -15 -7 -5 -9 -10 -8 -18 2 -12 16 -41 25 -32 10 4 -5 0 -12
-6 -15 -7 -3 -3 -3 9 -1 12 3 24 1 28 -5 5 -8 11 -7 23 2 13 11 14 11 10 -2
-2 -8 -17 -21 -32 -28 -15 -8 -25 -16 -23 -19 3 -2 15 1 27 7 22 12 50 -1 50
-22 0 -6 -7 -5 -15 2 -9 7 -17 11 -20 9 -2 -3 4 -10 15 -17 15 -9 22 -9 34 3
8 9 17 11 21 6 3 -5 1 -12 -5 -16 -5 -3 -10 -11 -10 -18 0 -6 6 -2 14 8 12 16
16 17 30 6 9 -7 13 -18 9 -25 -3 -6 6 0 20 13 15 14 27 20 27 14 0 -5 -9 -18
-20 -28 -11 -10 -20 -23 -19 -29 0 -6 3 -6 6 2 7 18 23 4 17 -16 -5 -13 -4
-14 4 -3 8 11 12 9 22 -9 11 -20 10 -22 -4 -17 -10 4 -14 3 -11 -2 8 -14 58
-8 63 7 2 6 -1 12 -8 12 -6 0 -8 -4 -5 -10 3 -5 2 -10 -4 -10 -6 0 -16 10 -22
23 -7 12 -19 27 -27 33 -12 8 -11 12 4 25 15 12 17 12 13 0 -3 -8 2 -22 11
-31 18 -18 61 -24 57 -8 -1 6 4 13 11 15 8 3 10 -1 6 -11 -3 -9 -1 -16 6 -16
6 0 8 5 5 10 -3 6 -2 10 2 10 5 0 14 -9 21 -20 12 -19 10 -20 -17 -15 -24 4
-33 1 -41 -16 -7 -11 -9 -23 -6 -26 3 -3 0 -15 -6 -27 -8 -16 -4 -14 16 7 28
30 35 47 11 27 -16 -13 -20 -3 -7 16 11 17 41 12 48 -8 3 -10 10 -16 15 -13 5
4 9 1 9 -4 0 -6 -6 -11 -12 -11 -10 0 -10 -2 -1 -8 9 -5 0 -13 -25 -22 -20 -8
-41 -13 -45 -12 -5 1 -6 -2 -2 -8 3 -6 9 -8 13 -6 4 2 7 -10 7 -27 0 -41 -28
-65 -53 -46 -14 11 -15 11 -5 -1 14 -16 0 -40 -23 -40 -8 0 -14 -4 -14 -10 0
-5 -6 -10 -14 -10 -8 0 -16 -4 -18 -9 -3 -10 -198 -141 -208 -141 -3 0 -15 6
-25 14 -17 12 -19 33 -22 241 -2 176 0 231 9 237 20 12 31 10 25 -5 -3 -8 1
-14 8 -14 10 0 11 5 4 18 -10 19 -13 76 -3 66 3 -3 16 5 28 17 24 27 164 126
154 110 -4 -5 -3 -16 3 -24 7 -12 9 -13 9 -1 0 8 8 20 18 28 16 14 16 14 -1 9
-10 -3 -16 -2 -13 3 8 12 56 11 56 -1z m183 -3 c-3 -9 -8 -14 -10 -11 -3 3 -2
9 2 15 9 16 15 13 8 -4z m-109 -10 c-10 -8 -23 -14 -29 -14 -5 0 -1 6 9 14 11
8 24 15 30 15 5 0 1 -7 -10 -15z m43 -2 c-4 -3 -1 -13 6 -22 11 -14 10 -14 -5
-2 -21 15 -23 31 -6 31 6 0 8 -3 5 -7z m-28 -30 c0 -11 -3 -13 -6 -5 -2 6 -10
9 -15 6 -7 -4 -8 -2 -4 4 11 18 26 14 25 -5z m91 7 c0 -5 -5 -10 -11 -10 -5 0
-7 5 -4 10 3 6 8 10 11 10 2 0 4 -4 4 -10z m-15 -29 c-6 -5 -25 10 -25 20 0 5
6 4 14 -3 8 -7 12 -15 11 -17z m25 -6 c-7 -8 -16 -15 -21 -15 -5 0 -1 8 9 18
20 22 31 19 12 -3z m-716 -45 c151 -40 166 -46 166 -65 0 -8 4 -15 9 -15 30 0
37 -30 40 -186 2 -87 4 -188 5 -224 1 -36 1 -68 -2 -73 -2 -4 -67 95 -144 220
-256 415 -241 388 -210 379 9 -2 71 -19 136 -36z m-92 -97 c40 -65 76 -124 80
-133 5 -8 52 -86 107 -173 135 -217 138 -187 -61 -490 -85 -127 -167 -253
-183 -279 -54 -87 -56 -77 -55 282 2 813 4 890 20 900 8 5 16 10 17 10 1 0 35
-53 75 -117z m529 82 c23 15 47 13 44 -3 -4 -29 6 -34 28 -15 12 9 16 11 10 3
-20 -22 -15 -29 17 -25 16 2 32 -1 36 -6 3 -5 9 -7 13 -5 4 3 7 -5 6 -16 -1
-12 -7 -24 -13 -26 -7 -2 -9 5 -7 18 3 13 0 18 -7 14 -7 -5 -8 -2 -3 7 7 12 5
12 -6 1 -12 -11 -12 -14 1 -22 13 -9 13 -10 0 -10 -13 0 -13 -1 0 -10 8 -5 11
-10 6 -10 -6 0 -5 -5 1 -11 8 -8 16 -8 30 0 11 7 13 10 4 11 -11 0 -11 3 -1
15 12 14 15 14 30 0 9 -8 19 -13 21 -10 3 2 5 -4 5 -14 0 -11 -6 -17 -13 -14
-7 3 -13 11 -13 19 0 8 -5 14 -11 14 -5 0 -8 -4 -4 -9 7 -12 -35 -42 -47 -35
-11 7 -39 74 -34 83 3 4 -4 7 -15 7 -11 0 -15 -4 -10 -9 6 -6 5 -14 -2 -22 -9
-10 -18 -8 -42 10 -16 12 -35 21 -41 18 -22 -8 -36 23 -22 51 10 23 13 24 20
11 5 -8 13 -13 19 -10z m249 -185 c0 -5 -7 -10 -16 -10 -8 0 -12 5 -9 10 3 6
10 10 16 10 5 0 9 -4 9 -10z"/>
<path d="M1355 4011 c-3 -5 -2 -12 3 -15 5 -3 9 1 9 9 0 17 -3 19 -12 6z"/>
<path d="M1393 3969 c-2 -23 3 -25 10 -4 4 8 3 16 -1 19 -4 3 -9 -4 -9 -15z"/>
<path d="M1529 3960 c-1 -5 -2 -16 -3 -22 -3 -15 25 -68 35 -68 8 0 4 59 -6
83 -8 18 -24 23 -26 7z m20 -23 c8 -10 7 -14 -2 -14 -8 0 -14 6 -14 14 0 7 1
13 2 13 2 0 8 -6 14 -13z"/>
<path d="M1346 3942 c-3 -5 1 -9 9 -9 8 0 12 4 9 9 -3 4 -7 8 -9 8 -2 0 -6 -4
-9 -8z"/>
<path d="M1430 3940 c0 -5 5 -10 10 -10 6 0 10 5 10 10 0 6 -4 10 -10 10 -5 0
-10 -4 -10 -10z"/>
<path d="M1407 3899 c7 -7 15 -10 18 -7 3 3 -2 9 -12 12 -14 6 -15 5 -6 -5z"/>
<path d="M1434 3879 c-4 -7 -3 -9 4 -5 5 3 13 0 15 -6 4 -9 6 -10 6 -1 1 17
-16 25 -25 12z"/>
<path d="M1396 3853 c-6 -14 -5 -15 5 -6 7 7 10 15 7 18 -3 3 -9 -2 -12 -12z"/>
<path d="M1566 3810 c22 -39 0 -76 -30 -51 -17 14 -29 0 -20 -23 5 -12 2 -15
-10 -10 -9 3 -16 2 -16 -4 0 -6 8 -9 18 -7 11 1 16 10 15 26 -3 23 -2 23 12 5
18 -24 19 -36 4 -36 -8 0 -8 -5 1 -15 7 -8 16 -12 21 -9 5 3 9 0 9 -5 0 -6 -6
-11 -13 -11 -7 0 -20 -13 -30 -29 -14 -24 -15 -29 -2 -27 8 1 18 6 22 11 4 4
2 5 -4 1 -7 -4 -13 -3 -13 2 0 14 25 32 51 37 22 4 29 11 32 32 0 5 7 14 14
22 12 11 11 17 -7 36 -18 19 -20 27 -10 45 10 20 10 21 -8 11 -13 -7 -23 -7
-32 2 -10 10 -11 9 -4 -3z m29 -49 c-3 -5 4 -12 15 -16 18 -6 18 -8 5 -21 -8
-9 -13 -19 -11 -22 2 -4 -2 -13 -9 -19 -11 -10 -15 -9 -20 9 -6 16 -9 18 -16
7 -6 -10 -8 -7 -7 11 2 14 12 33 23 42 23 20 29 22 20 9z"/>
<path d="M1577 3743 c-8 -7 3 -33 15 -33 5 0 7 4 4 9 -4 5 -1 11 6 13 8 3 6 6
-4 10 -9 4 -18 4 -21 1z"/>
<path d="M1466 3758 c3 -5 10 -6 15 -3 13 9 11 12 -6 12 -8 0 -12 -4 -9 -9z"/>
<path d="M1515 3680 c-3 -5 -1 -10 4 -10 6 0 11 5 11 10 0 6 -2 10 -4 10 -3 0
-8 -4 -11 -10z"/>
<path d="M1560 3640 c0 -5 5 -10 10 -10 6 0 10 5 10 10 0 6 -4 10 -10 10 -5 0
-10 -4 -10 -10z"/>
<path d="M1516 3578 c3 -5 10 -6 15 -3 13 9 11 12 -6 12 -8 0 -12 -4 -9 -9z"/>
<path d="M1717 3665 c-18 -25 -8 -43 16 -28 6 4 15 8 19 8 16 0 17 13 1 27
-17 15 -19 14 -36 -7z m38 -5 c3 -6 -1 -7 -9 -4 -18 7 -21 14 -7 14 6 0 13 -4
16 -10z"/>
<path d="M1790 3679 c0 -5 5 -7 10 -4 6 3 10 8 10 11 0 2 -4 4 -10 4 -5 0 -10
-5 -10 -11z"/>
<path d="M1834 3634 c-10 -9 -13 -13 -6 -9 7 4 18 3 25 -2 16 -12 37 -11 37 2
0 6 -3 10 -7 10 -5 0 -13 3 -19 7 -6 4 -20 0 -30 -8z"/>
<path d="M1990 3621 c0 -4 7 -14 15 -21 8 -7 12 -16 9 -21 -8 -14 2 -11 15 5
9 11 6 17 -14 30 -14 9 -25 12 -25 7z"/>
<path d="M2635 3616 c-11 -7 -24 -14 -30 -15 -5 0 -10 -6 -10 -11 0 -6 -7 -15
-15 -20 -12 -8 -12 -10 -1 -10 11 0 11 -3 1 -15 -9 -10 -9 -15 -1 -15 6 0 11
5 11 10 0 6 3 9 8 9 19 -3 33 2 27 11 -3 6 1 10 9 10 9 0 16 -5 16 -11 0 -5
11 3 25 18 22 26 23 29 8 41 -21 15 -24 15 -48 -2z m51 -8 c5 4 0 -3 -10 -15
-14 -17 -23 -20 -37 -13 -14 8 -19 6 -24 -10 -4 -11 -11 -18 -16 -14 -6 4 -6
10 0 18 6 7 9 16 6 19 -3 4 -2 5 1 2 4 -2 16 2 27 10 14 10 25 11 32 5 7 -5
16 -6 21 -2z"/>
<path d="M2641 3601 c-10 -6 -9 -10 3 -14 8 -3 18 -2 21 3 8 13 -9 20 -24 11z"/>
<path d="M2675 3560 c-3 -5 -4 -14 0 -19 3 -6 -3 -14 -12 -20 -10 -6 -13 -11
-7 -11 16 0 31 21 31 43 0 19 -3 21 -12 7z"/>
<path d="M2630 3530 c0 -5 7 -7 15 -4 8 4 15 8 15 10 0 2 -7 4 -15 4 -8 0 -15
-4 -15 -10z"/>
<path d="M2702 3520 c0 -14 2 -19 5 -12 2 6 2 18 0 25 -3 6 -5 1 -5 -13z"/>
<path d="M2595 3520 c-3 -5 -1 -10 4 -10 6 0 11 5 11 10 0 6 -2 10 -4 10 -3 0
-8 -4 -11 -10z"/>
<path d="M2546 3498 c3 -4 9 -8 15 -8 5 0 9 4 9 8 0 5 -7 9 -15 9 -8 0 -12 -4
-9 -9z"/>
<path d="M2675 3501 c-3 -5 -2 -12 3 -15 5 -3 9 1 9 9 0 17 -3 19 -12 6z"/>
<path d="M1635 3629 c-4 -10 -11 -16 -17 -13 -6 4 -6 -2 1 -15 8 -14 8 -21 1
-21 -5 0 -10 -10 -9 -22 0 -23 0 -23 10 1 5 13 11 22 12 20 1 -2 9 -13 17 -23
14 -18 13 -19 -2 -13 -10 3 -18 2 -18 -3 0 -11 23 -14 33 -4 3 4 -1 17 -9 29
-14 21 -13 24 5 37 20 14 20 15 1 31 -18 15 -19 15 -25 -4z m14 -25 c-6 -8
-15 -12 -18 -8 -3 4 0 9 7 11 6 3 9 10 6 15 -4 7 -2 8 5 4 9 -6 9 -11 0 -22z"/>
<path d="M1666 3592 c-3 -5 3 -21 14 -34 11 -14 16 -29 12 -33 -4 -5 -1 -5 6
-1 7 4 9 13 5 19 -5 7 -8 21 -8 31 0 21 -20 33 -29 18z m24 -12 c0 -5 -2 -10
-4 -10 -3 0 -8 5 -11 10 -3 6 -1 10 4 10 6 0 11 -4 11 -10z"/>
<path d="M1880 3580 c-9 -6 -10 -10 -3 -10 6 0 15 5 18 10 8 12 4 12 -15 0z"/>
<path d="M1751 3533 c-10 -26 -10 -27 4 -9 8 11 15 23 15 28 0 15 -7 8 -19
-19z"/>
<path d="M1837 3535 c-4 -8 -3 -16 1 -19 4 -3 9 4 9 15 2 23 -3 25 -10 4z"/>
<path d="M1576 3523 c-6 -14 -5 -15 5 -6 7 7 10 15 7 18 -3 3 -9 -2 -12 -12z"/>
<path d="M1601 3516 c-9 -11 -9 -16 1 -22 7 -4 10 -4 6 1 -4 4 -3 14 3 22 6 7
9 13 6 13 -2 0 -10 -6 -16 -14z"/>
<path d="M1670 3523 c0 -6 8 -17 18 -24 16 -13 16 -13 2 6 -8 11 -16 22 -17
24 -2 2 -3 0 -3 -6z"/>
<path d="M1719 3528 c-6 -20 -6 -39 0 -42 4 -3 7 6 7 20 0 20 -4 32 -7 22z"/>
<path d="M1770 3520 c0 -5 5 -10 10 -10 6 0 10 5 10 10 0 6 -4 10 -10 10 -5 0
-10 -4 -10 -10z"/>
<path d="M1800 3516 c0 -2 7 -7 16 -10 8 -3 12 -2 9 4 -6 10 -25 14 -25 6z"/>
<path d="M1855 3501 c-3 -5 -2 -12 3 -15 5 -3 9 1 9 9 0 17 -3 19 -12 6z"/>
<path d="M1880 3506 c0 -2 7 -7 16 -10 8 -3 12 -2 9 4 -6 10 -25 14 -25 6z"/>
<path d="M1650 3496 c0 -2 8 -10 18 -17 15 -13 16 -12 3 4 -13 16 -21 21 -21
13z"/>
<path d="M1833 3471 c0 -11 5 -18 9 -15 4 3 5 11 1 19 -7 21 -12 19 -10 -4z"/>
<path d="M1930 3482 c0 -5 7 -9 15 -9 8 0 12 4 9 9 -3 4 -9 8 -15 8 -5 0 -9
-4 -9 -8z"/>
<path d="M1695 3460 c3 -5 8 -10 11 -10 2 0 4 5 4 10 0 6 -5 10 -11 10 -5 0
-7 -4 -4 -10z"/>
<path d="M1735 3460 c3 -5 8 -10 11 -10 2 0 4 5 4 10 0 6 -5 10 -11 10 -5 0
-7 -4 -4 -10z"/>
<path d="M1867 3439 c7 -7 15 -10 18 -7 3 3 -2 9 -12 12 -14 6 -15 5 -6 -5z"/>
<path d="M2155 3570 c-3 -5 -2 -10 4 -10 5 0 13 5 16 10 3 6 2 10 -4 10 -5 0
-13 -4 -16 -10z"/>
<path d="M2230 3531 c0 -5 -9 -8 -20 -6 -11 2 -20 -1 -20 -7 0 -5 7 -8 15 -5
8 4 17 2 20 -3 4 -6 12 -10 18 -10 8 0 7 3 -2 9 -11 7 -11 9 0 13 10 3 10 6 1
12 -7 4 -12 3 -12 -3z"/>
<path d="M2004 3515 c6 -7 13 -9 16 -5 3 4 12 9 20 12 8 3 1 6 -16 5 -25 0
-29 -3 -20 -12z"/>
<path d="M1990 3501 c0 -6 4 -13 10 -16 6 -3 7 1 4 9 -7 18 -14 21 -14 7z"/>
<path d="M2030 3500 c0 -5 7 -7 15 -4 8 4 15 8 15 10 0 2 -7 4 -15 4 -8 0 -15
-4 -15 -10z"/>
<path d="M2310 3501 c0 -6 4 -13 10 -16 6 -3 7 1 4 9 -7 18 -14 21 -14 7z"/>
<path d="M2071 3484 c0 -11 3 -14 6 -6 3 7 2 16 -1 19 -3 4 -6 -2 -5 -13z"/>
<path d="M2122 3493 c-13 -5 -7 -23 9 -23 6 0 7 5 4 10 -3 6 -1 10 4 10 10 0
15 -14 12 -32 0 -5 4 -8 9 -8 13 0 13 6 0 31 -11 19 -16 21 -38 12z"/>
<path d="M2375 3462 c2 -9 4 -19 5 -22 1 -3 2 -9 1 -13 -1 -4 8 -3 19 3 25 13
25 14 -4 33 -22 15 -24 15 -21 -1z m30 -20 c-3 -3 -11 0 -18 7 -9 10 -8 11 6
5 10 -3 15 -9 12 -12z"/>
<path d="M2053 3447 c0 -8 6 -14 14 -14 9 0 10 4 2 14 -6 7 -12 13 -14 13 -1
0 -2 -6 -2 -13z"/>
<path d="M2114 3442 c4 -3 14 -7 22 -8 9 -1 13 0 10 4 -4 3 -14 7 -22 8 -9 1
-13 0 -10 -4z"/>
<path d="M2226 3404 c-6 -15 -4 -15 11 -3 10 7 20 15 22 16 2 2 -3 3 -11 3 -9
0 -19 -7 -22 -16z"/>
<path d="M2279 3393 c-12 -16 -12 -17 2 -6 9 7 19 10 22 6 4 -3 7 -1 7 5 0 17
-16 15 -31 -5z"/>
<path d="M2240 3380 c-9 -6 -10 -10 -3 -10 6 0 15 5 18 10 8 12 4 12 -15 0z"/>
<path d="M3255 3329 c-4 -5 -11 -6 -17 -3 -6 4 -8 2 -4 -4 3 -6 15 -9 26 -7
11 2 22 0 25 -5 3 -4 14 -6 26 -3 15 4 17 9 9 17 -8 8 -13 7 -20 -4 -5 -8 -10
-10 -10 -4 0 16 -28 26 -35 13z"/>
<path d="M3146 3285 c-9 -26 -7 -32 5 -12 6 10 9 21 6 23 -2 3 -7 -2 -11 -11z"/>
<path d="M3106 3258 c3 -4 9 -8 15 -8 5 0 9 4 9 8 0 5 -7 9 -15 9 -8 0 -12 -4
-9 -9z"/>
<path d="M3157 3255 c-4 -8 -3 -16 1 -19 4 -3 9 4 9 15 2 23 -3 25 -10 4z"/>
<path d="M3114 3216 c1 -14 4 -28 7 -31 3 -3 5 6 5 19 -1 14 -4 28 -7 31 -3 3
-5 -6 -5 -19z"/>
<path d="M3147 3218 c2 -5 10 -8 18 -8 8 0 16 3 18 8 3 4 -5 7 -18 7 -13 0
-21 -3 -18 -7z"/>
<path d="M3187 3179 c7 -7 15 -10 18 -7 3 3 -2 9 -12 12 -14 6 -15 5 -6 -5z"/>
<path d="M3190 3156 c0 -2 9 -6 20 -9 11 -3 18 -1 14 4 -5 9 -34 13 -34 5z"/>
<path d="M3173 3105 c0 -8 4 -12 9 -9 5 3 6 10 3 15 -9 13 -12 11 -12 -6z"/>
<path d="M3215 3060 c-3 -5 -1 -10 4 -10 6 0 11 5 11 10 0 6 -2 10 -4 10 -3 0
-8 -4 -11 -10z"/>
<path d="M3230 3281 c0 -6 4 -13 10 -16 6 -3 7 1 4 9 -7 18 -14 21 -14 7z"/>
<path d="M3322 3271 c-11 -7 -11 -9 0 -14 9 -3 15 1 15 9 0 8 -1 14 -1 14 -1
0 -7 -4 -14 -9z"/>
<path d="M3423 3257 c-4 -7 -8 -21 -8 -32 0 -14 -6 -20 -22 -19 -12 1 -22 -1
-21 -5 2 -21 -4 -31 -14 -25 -7 4 -10 3 -5 -1 4 -5 -1 -18 -10 -29 -17 -20
-17 -20 1 -6 18 14 19 13 13 -5 -7 -19 -6 -19 7 -2 8 11 17 14 20 8 4 -5 -4
-17 -16 -25 -12 -9 -19 -19 -15 -23 4 -4 14 3 23 15 14 20 52 33 40 13 -3 -5
1 -12 10 -15 21 -8 24 -8 24 5 0 5 -4 8 -9 5 -5 -3 -12 1 -15 10 -9 24 -7 29
5 17 6 -6 18 -9 25 -6 10 4 12 0 8 -13 -5 -15 -4 -16 5 -4 5 8 13 12 16 8 4
-3 -6 -18 -22 -34 -15 -15 -20 -22 -10 -14 9 7 21 10 24 6 4 -4 1 -12 -7 -17
-13 -9 -13 -10 0 -6 8 2 16 14 16 26 1 13 11 32 22 43 20 20 20 21 2 50 -17
28 -60 66 -60 53 0 -3 12 -17 26 -30 21 -19 24 -28 15 -38 -6 -8 -8 -17 -4
-20 3 -4 1 -7 -5 -7 -15 0 -16 17 -2 25 13 8 13 25 -1 25 -5 0 -8 -4 -5 -9 3
-5 0 -14 -8 -20 -10 -9 -17 -7 -27 6 -8 9 -9 14 -3 10 6 -3 11 0 11 8 0 8 -5
11 -10 8 -6 -4 -7 -1 -2 7 6 9 4 11 -5 5 -9 -5 -11 -4 -6 4 4 6 12 8 18 5 6
-4 8 -1 6 7 -3 8 -11 13 -17 11 -7 -1 -10 2 -6 8 3 6 10 8 15 5 5 -3 11 -1 14
4 9 14 -22 22 -31 8z m-3 -69 c-3 -3 4 -16 15 -29 11 -13 13 -18 4 -12 -11 9
-18 10 -27 1 -8 -8 -15 -8 -25 0 -8 7 -18 8 -22 4 -5 -4 -5 -1 -1 6 4 7 12 9
18 6 7 -5 9 -2 5 8 -3 9 -3 18 -1 21 7 7 40 1 34 -5z m94 -27 c3 -5 -1 -14 -8
-20 -12 -10 -14 -9 -11 6 2 10 4 19 4 21 2 5 10 2 15 -7z"/>
<path d="M3400 3175 c5 -7 6 -16 2 -21 -4 -5 -3 -5 2 -1 15 12 15 34 0 34 -9
0 -11 -4 -4 -12z"/>
<path d="M3454 3185 c0 -13 3 -22 7 -19 8 4 6 30 -2 38 -3 3 -5 -5 -5 -19z"/>
<path d="M3512 3118 c-15 -15 -16 -31 0 -26 6 2 12 12 14 21 3 20 2 21 -14 5z"/>
<path d="M3384 3099 c-5 -8 -3 -9 6 -4 10 6 12 2 8 -17 -3 -15 0 -25 7 -25 7
0 10 10 7 24 -5 28 -18 38 -28 22z"/>
<path d="M3311 3084 c0 -11 3 -14 6 -6 3 7 2 16 -1 19 -3 4 -6 -2 -5 -13z"/>
<path d="M3330 3081 c0 -6 4 -13 10 -16 6 -3 7 1 4 9 -7 18 -14 21 -14 7z"/>
<path d="M3511 3071 c-19 -14 -21 -20 -10 -26 8 -5 11 -5 7 0 -4 4 3 16 15 26
29 24 19 24 -12 0z"/>
<path d="M3346 3038 c3 -5 10 -6 15 -3 13 9 11 12 -6 12 -8 0 -12 -4 -9 -9z"/>
<path d="M3506 3025 c-11 -8 -15 -15 -9 -15 6 0 16 7 23 15 16 19 11 19 -14 0z"/>
<path d="M3375 3020 c3 -5 8 -10 11 -10 2 0 4 5 4 10 0 6 -5 10 -11 10 -5 0
-7 -4 -4 -10z"/>
<path d="M3456 2978 c3 -4 11 -5 19 -1 21 7 19 12 -4 10 -11 0 -18 -5 -15 -9z"/>
<path d="M3960 2361 c-13 -26 -13 -28 5 -28 10 0 14 7 10 21 -3 12 -2 15 1 8
3 -6 10 -10 15 -6 11 6 2 24 -11 24 -5 0 -14 -9 -20 -19z"/>
<path d="M3920 2363 c0 -7 -3 -12 -7 -12 -20 3 -22 -3 -7 -26 9 -14 20 -23 24
-20 5 3 12 0 15 -5 5 -8 12 -7 23 4 15 13 19 13 37 -2 12 -9 24 -26 28 -36 4
-10 10 -16 14 -12 4 3 17 -4 30 -16 14 -13 32 -23 41 -23 9 0 16 -5 15 -12 -1
-6 4 -17 13 -24 12 -10 18 -9 32 6 9 10 12 15 6 11 -7 -3 -14 1 -17 9 -4 10
-1 12 11 9 14 -5 15 -4 2 5 -22 16 -33 13 -26 -6 6 -15 5 -15 -13 1 -11 10
-18 22 -16 26 3 5 -1 11 -7 13 -10 4 -10 6 0 6 7 1 10 6 7 12 -4 5 1 19 11 30
17 19 9 26 -21 19 -12 -3 -19 -2 -63 5 -19 2 -31 1 -27 -4 3 -5 1 -13 -5 -16
-6 -4 -9 -1 -8 7 2 7 -3 12 -10 10 -8 -1 -11 2 -7 8 3 6 11 7 17 4 8 -5 9 -1
4 11 -7 18 -6 18 14 0 11 -10 20 -13 20 -8 0 6 -7 17 -16 24 -14 11 -19 10
-36 -11 -27 -33 -46 -33 -63 -2 -8 15 -14 21 -15 15z m18 -36 c7 -9 18 -14 24
-11 7 4 8 2 4 -5 -6 -8 -12 -9 -20 -2 -7 6 -16 9 -19 6 -4 -3 -5 -2 -2 2 3 3
-3 12 -13 20 -13 10 -14 13 -2 11 8 -2 21 -11 28 -21z m158 -35 c11 -25 14
-62 5 -62 -19 0 -34 30 -22 43 19 24 -1 27 -21 4 -11 -12 -17 -17 -14 -10 4 6
2 14 -4 18 -16 10 -1 25 17 18 11 -4 14 -3 9 5 -4 8 -2 10 8 6 8 -3 18 -13 22
-22z m27 13 c-3 -9 -8 -14 -10 -11 -3 3 -2 9 2 15 9 16 15 13 8 -4z m42 -123
c-3 -3 -11 0 -18 7 -9 10 -8 11 6 5 10 -3 15 -9 12 -12z"/>
<path d="M4084 2269 c-3 -6 -2 -15 3 -20 5 -5 9 -1 9 11 0 23 -2 24 -12 9z"/>
<path d="M3780 2245 c0 -8 29 -12 39 -5 9 5 4 8 -13 8 -14 0 -26 -2 -26 -3z"/>
<path d="M3773 2215 c-3 -9 -3 -18 -1 -21 3 -3 8 4 11 16 6 23 -1 27 -10 5z"/>
<path d="M3815 2190 c-4 -6 1 -7 11 -3 12 4 15 3 10 -5 -5 -8 -1 -10 10 -5 13
5 15 3 9 -7 -6 -9 -4 -11 5 -5 10 6 9 11 -5 22 -22 16 -32 16 -40 3z"/>
<path d="M3790 2159 c0 -5 5 -7 10 -4 6 3 10 8 10 11 0 2 -4 4 -10 4 -5 0 -10
-5 -10 -11z"/>
<path d="M3880 2160 c-9 -6 -10 -10 -3 -10 6 0 15 5 18 10 8 12 4 12 -15 0z"/>
<path d="M3937 2153 c5 -12 3 -14 -7 -8 -9 5 -11 4 -6 -4 4 -6 12 -9 17 -6 12
8 12 35 -1 35 -5 0 -6 -7 -3 -17z"/>
<path d="M3815 2149 c-4 -6 -5 -12 -2 -15 2 -3 7 2 10 11 7 17 1 20 -8 4z"/>
<path d="M3893 2134 c-3 -8 -2 -19 3 -24 5 -5 9 1 9 16 0 28 -3 30 -12 8z"/>
<path d="M3848 2133 c-21 -5 -23 -19 -5 -29 6 -4 9 -4 5 1 -4 4 0 14 10 21 18
14 17 14 -10 7z"/>
<path d="M3945 2120 c-3 -5 -1 -10 4 -10 6 0 11 5 11 10 0 6 -2 10 -4 10 -3 0
-8 -4 -11 -10z"/>
<path d="M3733 2105 c0 -8 4 -12 9 -9 5 3 6 10 3 15 -9 13 -12 11 -12 -6z"/>
<path d="M3867 2107 c-3 -8 1 -14 8 -14 7 0 11 6 8 14 -3 7 -6 13 -8 13 -2 0
-5 -6 -8 -13z"/>
<path d="M3816 2078 c3 -5 10 -6 15 -3 13 9 11 12 -6 12 -8 0 -12 -4 -9 -9z"/>
<path d="M3913 2075 c0 -8 4 -12 9 -9 4 3 8 9 8 15 0 5 -4 9 -8 9 -5 0 -9 -7
-9 -15z"/>
<path d="M3940 2060 c-8 -5 -10 -10 -5 -10 6 0 17 5 25 10 8 5 11 10 5 10 -5
0 -17 -5 -25 -10z"/>
<path d="M4116 2045 c-3 -8 -1 -15 4 -15 6 0 10 7 10 15 0 8 -2 15 -4 15 -2 0
-6 -7 -10 -15z"/>
<path d="M3970 2041 c0 -6 4 -13 10 -16 6 -3 7 1 4 9 -7 18 -14 21 -14 7z"/>
<path d="M3895 2020 c3 -5 8 -10 11 -10 2 0 4 5 4 10 0 6 -5 10 -11 10 -5 0
-7 -4 -4 -10z"/>
<path d="M4020 2020 c-9 -6 -10 -10 -3 -10 6 0 15 5 18 10 8 12 4 12 -15 0z"/>
<path d="M4090 2020 c0 -5 5 -10 11 -10 5 0 7 5 4 10 -3 6 -8 10 -11 10 -2 0
-4 -4 -4 -10z"/>
<path d="M4036 2002 c-3 -5 1 -9 9 -9 8 0 12 4 9 9 -3 4 -7 8 -9 8 -2 0 -6 -4
-9 -8z"/>
<path d="M3997 1973 c-10 -9 -9 -23 1 -23 5 0 9 7 9 15 0 17 -1 18 -10 8z"/>
<path d="M3945 2253 c2 -10 4 -21 4 -25 1 -5 6 -8 12 -8 8 0 7 6 -2 17 -8 9
-12 18 -11 20 2 3 1 7 -1 10 -3 3 -4 -3 -2 -14z"/>
<path d="M3884 2249 c-6 -10 14 -21 25 -14 6 3 14 -3 20 -12 6 -10 11 -13 11
-6 0 6 -5 15 -10 18 -6 4 -8 10 -6 14 3 3 -4 7 -15 7 -11 0 -22 -4 -25 -7z"/>
<path d="M3950 2206 c0 -2 7 -7 16 -10 8 -3 12 -2 9 4 -6 10 -25 14 -25 6z"/>
</g>
</svg>
